<svg xmlns="http://www.w3.org/2000/svg" viewBox="0 0 740 342">
    <defs><style>.base{opacity:.4} .light{opacity:.5} .dark{opacity:.6}</style></defs>
    <g transform="translate(0.000000,342.000000) scale(0.100000,-0.100000)"
       fill="#000000" stroke="none">
        <path d="M480 2881 l0 -541 125 0 125 0 2 284 3 285 145 -105 c79 -57 147
-104 150 -104 3 0 70 48 150 105 l145 105 3 -285 2 -285 125 0 125 0 0 540 c0
297 -2 540 -4 540 -2 0 -124 -92 -272 -205 -148 -113 -274 -203 -281 -201 -6
3 -116 85 -245 182 -128 98 -248 189 -265 202 l-33 24 0 -541z m1050 -26 l0
-465 -75 0 -75 0 0 310 c0 171 -2 310 -5 310 -3 0 -79 -54 -170 -120 -91 -66
-170 -120 -176 -120 -5 0 -84 54 -175 120 -91 66 -167 120 -170 120 -2 0 -4
-139 -4 -310 l0 -310 -75 0 -75 0 0 460 c0 253 2 460 5 460 2 0 115 -83 250
-185 l245 -186 247 190 c137 104 249 190 251 190 1 1 2 -208 2 -464z"/>
        <path d="M2173 3390 c-156 -28 -302 -133 -377 -271 -34 -62 -66 -187 -66 -259
0 -73 32 -197 67 -263 92 -171 324 -294 513 -272 215 24 378 144 456 335 36
86 45 243 20 340 -45 176 -187 322 -364 374 -69 20 -183 27 -249 16z m167 -50
c79 -13 190 -64 249 -116 137 -119 195 -330 141 -507 -72 -232 -318 -381 -550
-333 -106 23 -175 59 -251 135 -78 78 -123 164 -141 269 -43 253 141 505 402
552 64 11 77 11 150 0z"/>
        <path d="M2175 3186 c-96 -30 -158 -86 -202 -181 -23 -51 -28 -73 -28 -145 0
-71 5 -94 27 -141 35 -76 88 -133 156 -166 49 -24 69 -28 142 -27 69 0 95 5
135 24 63 31 124 91 155 155 22 44 25 64 25 155 0 102 -1 107 -36 170 -75 137
-230 201 -374 156z m178 -52 c104 -35 178 -138 185 -256 6 -96 -18 -159 -83
-224 -77 -77 -160 -99 -261 -69 -97 29 -163 100 -191 209 -17 62 -17 70 -1
131 21 78 57 134 108 170 79 55 159 68 243 39z"/>
        <path d="M5415 3393 c-214 -28 -397 -186 -450 -388 -19 -76 -19 -214 0 -290
67 -256 333 -427 600 -385 256 39 454 271 455 531 0 76 -33 199 -72 268 -103
181 -326 292 -533 264z m215 -72 c221 -69 370 -308 332 -533 -18 -105 -63
-191 -141 -269 -112 -111 -255 -161 -401 -139 -243 35 -420 237 -420 479 0
138 45 248 139 342 132 131 312 175 491 120z"/>
        <path d="M5375 3183 c-143 -52 -222 -180 -213 -346 8 -134 70 -232 183 -287
69 -33 198 -35 267 -3 70 32 131 94 164 166 24 53 28 75 28 147 1 99 -25 168
-89 238 -79 88 -228 125 -340 85z m220 -61 c136 -70 197 -241 136 -379 -31
-71 -104 -137 -172 -157 -66 -20 -92 -20 -159 0 -70 21 -149 98 -173 168 -39
114 -14 231 68 312 29 29 69 58 95 67 58 22 152 17 205 -11z"/>
        <path d="M2960 2860 l0 -520 325 0 325 0 0 120 0 120 -200 0 -200 0 0 400 0
400 -125 0 -125 0 0 -520z m200 70 l0 -400 200 0 200 0 0 -70 0 -70 -280 0
-280 0 0 470 0 470 80 0 80 0 0 -400z"/>
        <path d="M3730 2860 l0 -520 125 0 125 0 0 520 0 520 -125 0 -125 0 0 -520z
m200 0 l0 -470 -75 0 -75 0 0 470 0 470 75 0 75 0 0 -470z"/>
        <path d="M4100 3260 l0 -120 125 0 125 0 0 -400 0 -400 125 0 125 0 0 400 0
400 130 0 130 0 0 120 0 120 -380 0 -380 0 0 -120z m710 0 l0 -70 -130 0 -130
0 0 -400 0 -400 -75 0 -75 0 0 400 0 400 -125 0 -125 0 0 70 0 70 330 0 330 0
0 -70z"/>
        <path d="M6170 2860 l0 -520 125 0 125 0 0 85 0 85 36 0 c33 0 45 -8 116 -85
l80 -85 169 0 c93 0 169 3 169 6 0 3 -50 58 -110 122 -109 116 -110 117 -88
132 49 31 112 106 142 169 29 63 31 72 31 186 0 109 -2 125 -27 178 -33 70
-111 155 -176 190 -89 48 -147 57 -379 57 l-213 0 0 -520z m465 456 c115 -30
206 -104 253 -204 24 -50 27 -70 27 -157 0 -89 -3 -107 -29 -162 -31 -68 -101
-141 -160 -170 -20 -9 -36 -20 -36 -24 0 -5 41 -51 90 -102 50 -52 90 -97 90
-101 0 -3 -42 -6 -93 -6 l-92 0 -85 85 -85 85 -72 0 -73 0 0 -85 0 -85 -75 0
-75 0 0 470 0 470 183 0 c120 0 199 -5 232 -14z"/>
        <path d="M6370 2944 l0 -246 113 4 c99 3 118 7 162 31 80 44 115 110 115 216
0 71 -16 122 -53 167 -49 59 -94 74 -224 74 l-113 0 0 -246z m250 173 c58 -31
90 -89 90 -166 -1 -132 -78 -201 -226 -201 l-64 0 0 195 0 195 78 0 c63 0 88
-5 122 -23z"/>
        <path d="M1160 1539 c-151 -292 -276 -534 -278 -540 -2 -5 51 -9 131 -9 l135
0 31 65 30 65 223 0 224 0 32 -65 32 -65 140 0 140 0 -44 88 c-85 170 -507
977 -514 984 -4 4 -131 -232 -282 -523z m515 -33 c126 -245 231 -449 233 -455
2 -7 -23 -11 -77 -11 l-81 0 -32 65 -32 65 -256 0 -255 -1 -29 -64 -29 -65
-77 0 -77 0 235 455 c129 250 238 455 241 455 3 0 109 -200 236 -444z"/>
        <path d="M1333 1497 l-93 -192 187 -3 c102 -1 188 -1 190 1 5 5 -179 387 -186
387 -3 0 -48 -87 -98 -193z m131 16 c16 -32 39 -82 52 -110 l24 -53 -110 0
-109 0 52 109 c29 61 54 110 57 110 3 1 19 -25 34 -56z"/>
        <path d="M3840 1531 l0 -541 125 0 125 0 2 265 3 266 342 -286 c189 -157 347
-285 353 -285 7 0 10 180 10 535 l0 535 -130 0 -130 0 -2 -266 -3 -265 -295
248 c-163 136 -319 268 -348 291 l-52 44 0 -541z m910 -22 l0 -461 -47 38
c-27 21 -185 153 -353 293 l-305 254 -3 -297 -2 -296 -75 0 -75 0 0 460 0 460
345 -290 c190 -160 347 -290 350 -290 3 0 5 133 5 295 l0 295 80 0 80 0 0
-461z"/>
        <path d="M6924 2026 c-102 -33 -182 -118 -209 -223 -13 -47 -14 -70 -4 -125
22 -138 126 -230 284 -253 106 -15 159 -73 133 -145 -27 -80 -157 -80 -218 0
-15 20 -17 19 -118 -56 -56 -42 -102 -80 -102 -84 0 -13 57 -67 103 -99 75
-50 132 -66 242 -66 87 0 107 3 155 26 82 39 135 90 172 167 30 60 33 75 33
157 0 82 -3 97 -33 157 -51 104 -135 160 -269 179 -120 18 -160 48 -133 99 23
43 89 43 136 -1 23 -21 24 -21 51 -4 66 43 173 126 173 134 0 17 -99 99 -147
121 -59 29 -187 37 -249 16z m192 -51 c46 -13 136 -77 124 -87 -3 -2 -29 -22
-58 -43 l-54 -38 -31 18 c-40 24 -113 24 -149 1 -52 -34 -60 -123 -15 -163 34
-31 42 -34 132 -48 185 -30 278 -125 279 -285 1 -97 -28 -163 -96 -225 -91
-82 -209 -105 -330 -64 -55 18 -139 67 -152 87 -3 5 24 29 59 54 57 42 65 45
77 31 37 -45 159 -58 215 -23 46 28 67 65 67 119 -1 90 -49 141 -154 161 -95
19 -146 39 -188 75 -116 100 -114 270 5 374 76 67 168 86 269 56z"/>
        <path d="M50 1505 l0 -515 130 0 130 0 0 75 0 75 89 0 c248 0 416 145 451 388
19 136 -19 260 -111 357 -111 118 -170 135 -466 135 l-223 0 0 -515z m495 446
c158 -56 258 -197 257 -361 -2 -164 -88 -302 -232 -369 -48 -22 -71 -26 -182
-29 l-128 -4 0 -74 0 -74 -80 0 -80 0 0 465 0 465 195 0 c168 0 203 -3 250
-19z"/>
        <path d="M260 1579 l0 -262 108 5 c122 5 170 23 220 83 84 102 67 300 -32 382
-50 41 -97 53 -205 53 l-91 0 0 -261z m200 201 c74 -21 130 -108 130 -205 0
-70 -17 -112 -63 -152 -42 -37 -91 -53 -164 -53 l-53 0 0 210 0 210 58 0 c31
0 73 -5 92 -10z"/>
        <path d="M2070 1505 l0 -515 130 0 130 0 0 85 0 85 33 0 c27 0 43 -12 110 -85
l78 -85 175 0 175 0 -108 115 c-59 64 -109 119 -110 123 -1 4 21 25 49 47 132
105 182 315 117 490 -24 64 -107 160 -172 198 -85 50 -132 57 -379 57 l-228 0
0 -515z m506 446 c300 -106 341 -518 67 -673 l-54 -31 23 -26 c12 -14 56 -61
97 -103 l76 -78 -100 0 -100 0 -85 85 -85 85 -67 0 -68 0 0 -85 0 -85 -80 0
-80 0 0 465 0 465 200 0 c173 0 208 -3 256 -19z"/>
        <path d="M2280 1589 l0 -252 103 5 c123 7 175 26 229 85 83 93 71 276 -24 357
-49 42 -102 56 -217 56 l-91 0 0 -251z m254 172 c68 -42 99 -142 72 -234 -25
-86 -83 -124 -207 -134 l-69 -6 0 203 0 203 83 -5 c64 -3 92 -10 121 -27z"/>
        <path d="M2950 1905 l0 -115 125 0 125 0 0 -400 0 -400 125 0 125 0 0 400 0
400 130 0 130 0 0 115 0 115 -380 0 -380 0 0 -115z m710 0 l0 -65 -130 0 -130
0 0 -400 0 -400 -75 0 -75 0 0 400 0 400 -125 0 -125 0 0 65 0 65 330 0 330 0
0 -65z"/>
        <path d="M4990 1505 l0 -515 330 0 330 0 0 115 0 115 -205 0 -205 0 0 100 0
100 185 0 185 0 0 115 0 115 -185 0 -185 0 0 70 0 70 160 0 160 0 0 115 0 115
-285 0 -285 0 0 -515z m520 400 l0 -65 -160 0 -160 0 0 -120 0 -120 185 0 185
0 0 -65 0 -65 -185 0 -185 0 0 -150 0 -150 205 0 205 0 0 -65 0 -65 -280 0
-280 0 0 465 0 465 235 0 235 0 0 -65z"/>
        <path d="M5800 1506 l0 -516 130 0 130 0 0 85 0 85 27 0 c21 0 48 -20 113 -85
l86 -86 168 3 168 3 -106 113 c-58 62 -106 117 -106 121 0 5 10 15 23 23 46
31 99 95 130 158 31 62 32 69 32 190 0 121 -1 128 -32 191 -41 82 -111 150
-201 192 l-67 32 -247 3 -248 3 0 -515z m538 430 c43 -20 80 -47 116 -87 69
-74 96 -143 96 -243 0 -161 -59 -258 -216 -352 -17 -10 -9 -21 75 -110 l94
-99 -98 -3 -98 -3 -79 86 -80 85 -69 0 -69 0 0 -85 0 -85 -80 0 -80 0 0 466 0
465 213 -3 c210 -3 213 -3 275 -32z"/>
        <path d="M6010 1589 l0 -252 98 6 c123 8 166 22 218 72 49 46 64 91 64 186 0
52 -6 77 -27 120 -47 91 -108 119 -260 119 l-93 0 0 -251z m225 182 c76 -35
105 -85 105 -180 0 -122 -68 -186 -208 -198 l-72 -6 0 202 0 201 68 0 c44 0
81 -7 107 -19z"/>
        <path d="M3696 560 c-2 -8 -12 -40 -22 -70 -24 -79 -51 -130 -90 -171 l-34
-35 31 -30 c37 -35 70 -97 95 -179 10 -33 21 -64 24 -68 4 -4 14 20 24 54 21
77 67 167 100 198 l26 24 -34 38 c-44 48 -50 59 -85 165 -17 49 -32 82 -35 74z"/>
        <path d="M3393 426 c-23 -7 -76 -32 -117 -55 l-75 -41 -1533 -20 c-843 -11
-1564 -20 -1602 -20 -38 0 -67 -2 -64 -5 3 -3 724 -15 1604 -26 1523 -19 1600
-21 1629 -39 74 -46 161 -82 210 -87 45 -5 56 -2 75 17 19 19 21 28 15 64 -9
47 -9 85 0 141 4 27 2 46 -7 58 -18 24 -82 30 -135 13z m77 -62 c0 -3 -8 -22
-17 -41 -17 -36 -16 -38 12 -105 12 -29 -23 -22 -115 23 l-84 40 32 21 c62 39
172 79 172 62z"/>
        <path d="M3885 415 c-28 -27 -30 -43 -12 -95 10 -28 10 -42 0 -70 -17 -49 -16
-64 8 -94 15 -19 30 -26 55 -26 46 0 134 32 205 74 l58 35 1597 20 c878 11
1599 23 1602 26 3 3 -26 5 -64 5 -38 0 -759 9 -1603 20 l-1534 20 -51 31 c-64
40 -167 79 -207 79 -18 0 -39 -9 -54 -25z m165 -86 c81 -39 84 -41 65 -56 -29
-23 -116 -62 -153 -69 -32 -7 -32 -6 -22 22 6 16 16 34 21 41 7 8 7 18 0 32
-6 11 -15 31 -21 45 -14 37 9 34 110 -15z"/>
    </g>
</svg>
