<?xml version="1.0" standalone="no"?>
<!DOCTYPE svg PUBLIC "-//W3C//DTD SVG 20010904//EN"
 "http://www.w3.org/TR/2001/REC-SVG-20010904/DTD/svg10.dtd">
<svg version="1.0" xmlns="http://www.w3.org/2000/svg"
 width="222.000000pt" height="222.000000pt" viewBox="0 0 222.000000 222.000000"
 preserveAspectRatio="xMidYMid meet">
<metadata>
Created by potrace 1.11, written by Peter Selinger 2001-2013
</metadata>
<g transform="translate(0.000000,222.000000) scale(0.100000,-0.100000)"
fill="#000000" stroke="none">
<path d="M4 1118 l1 -1083 240 -1 c132 0 245 1 250 3 7 2 10 204 9 583 l-1
579 31 -22 c17 -12 154 -110 304 -219 l273 -197 182 131 c100 72 236 171 302
219 l120 87 5 -582 5 -581 245 0 245 0 1 1083 2 1083 -37 -28 c-20 -15 -157
-120 -306 -233 -148 -113 -337 -257 -420 -320 -82 -62 -193 -147 -247 -188
l-96 -74 -99 74 c-54 40 -100 75 -103 78 -3 3 -203 156 -445 339 -242 184
-445 338 -451 343 -9 6 -11 -270 -10 -1074z m120 884 c12 -11 131 -102 266
-204 135 -101 342 -258 460 -348 118 -90 226 -170 240 -178 25 -15 31 -10 320
209 611 462 713 539 719 539 3 0 6 -427 6 -950 l0 -950 -166 0 -166 0 0 615
c0 338 -2 617 -5 620 -4 4 -99 -63 -533 -377 -82 -60 -154 -107 -160 -105 -5
3 -160 113 -344 246 -183 133 -336 240 -339 237 -2 -3 -5 -282 -5 -621 l1
-615 -167 0 -166 0 0 950 c0 583 4 950 9 950 6 0 19 -8 30 -18z"/>
</g>
</svg>
